<?xml version="1.0" encoding="UTF-8"?><svg version="1.1" width="132px" height="24px" viewBox="0 0 132.0 24.0" xmlns="http://www.w3.org/2000/svg" xmlns:xlink="http://www.w3.org/1999/xlink"><defs><clipPath id="i0"><path d="M1920,0 L1920,1080 L0,1080 L0,0 L1920,0 Z"></path></clipPath><clipPath id="i1"><path d="M14.6120065,5.7388052e-14 C15.4153467,5.65269713e-14 15.7066573,0.0836443996 16.0003465,0.240711096 C16.2940357,0.397777793 16.5245247,0.628266786 16.6815914,0.921955975 C16.8386581,1.21564516 16.9223025,1.50695575 16.9223025,2.310296 L16.9223025,14.6827075 C16.9223025,15.4860478 16.8386581,15.7773583 16.6815914,16.0710475 C16.5245247,16.3647367 16.2940357,16.5952257 16.0003465,16.7522924 C15.7066573,16.9093591 15.4153467,16.9930035 14.6120065,16.9930035 L2.310296,16.9930035 C1.50695575,16.9930035 1.21564516,16.9093591 0.921955975,16.7522924 C0.628266786,16.5952257 0.397777793,16.3647367 0.240711096,16.0710475 C0.0836443996,15.7773583 1.67879178e-16,15.4860478 -2.88934351e-16,14.6827075 L6.22258157e-17,2.310296 C-3.61549909e-17,1.50695575 0.0836443996,1.21564516 0.240711096,0.921955975 C0.397777793,0.628266786 0.628266786,0.397777793 0.921955975,0.240711096 C1.21564516,0.0836443996 1.50695575,5.70293755e-14 2.310296,5.65233716e-14 L14.6120065,5.7388052e-14 Z M12.130146,4.81217798 L4.79215645,4.81217798 L4.79215645,12.1808255 L12.130146,12.1808255 L12.130146,4.81217798 Z"></path></clipPath><clipPath id="i2"><path d="M7.71237678,0 L7.71237678,4.81217798 L0,4.81217798 L0,0 L7.71237678,0 Z"></path></clipPath><clipPath id="i3"><path d="M4.79215645,0 L4.79215645,12.1808255 L1.36135497,12.1808255 C0.887982191,12.1808255 0.716325782,12.1315376 0.543267768,12.0389851 C0.370209754,11.9464327 0.234392812,11.8106158 0.141840374,11.6375578 C0.0492879351,11.4644997 -4.4557561e-17,11.2928433 7.66873539e-17,10.8194705 L0,0 L4.79215645,0 Z"></path></clipPath><linearGradient id="i4" x1="2.39607822px" y1="2.16374927e-14px" x2="2.39607822px" y2="12.1808255px" gradientUnits="userSpaceOnUse"><stop stop-color="#3491FA" offset="0%"></stop><stop stop-color="#165DFF" offset="100%"></stop></linearGradient><clipPath id="i5"><path d="M4.79215645,0 L4.79215645,12.1808255 L0,12.1808255 L0,0 L4.79215645,0 Z"></path></clipPath><linearGradient id="i6" x1="2.39607822px" y1="0px" x2="2.39607822px" y2="12.1808255px" gradientUnits="userSpaceOnUse"><stop stop-color="#14C9C9" offset="0%"></stop><stop stop-color="#00B32A" offset="100%"></stop></linearGradient><clipPath id="i7"><path d="M15.5609475,-1.00871078e-15 C16.0343203,5.86090011e-16 16.2059767,0.0492879351 16.3790347,0.141840374 C16.5520927,0.234392812 16.6879096,0.370209754 16.7804621,0.543267768 C16.8730145,0.716325782 16.9223025,0.887982191 16.9223025,1.36135497 L16.9223025,4.81217798 L0,4.81217798 L3.66669135e-17,1.36135497 C-2.13045327e-17,0.887982191 0.0492879351,0.716325782 0.141840374,0.543267768 C0.234392812,0.370209754 0.370209754,0.234392812 0.543267768,0.141840374 C0.716325782,0.0492879351 0.887982191,9.78188928e-17 1.36135497,-1.68354638e-16 L15.5609475,-1.00871078e-15 Z"></path></clipPath><linearGradient id="i8" x1="16.9223025px" y1="2.40608899px" x2="-1.50300238e-14px" y2="2.40608899px" gradientUnits="userSpaceOnUse"><stop stop-color="#14C9C9" offset="0%"></stop><stop stop-color="#3491FA" offset="100%"></stop></linearGradient><clipPath id="i9"><path d="M4.79215645,0 L4.79215645,3.45082301 C4.79215645,3.92419579 4.74286851,4.0958522 4.65031607,4.26891021 C4.55776363,4.44196823 4.42194669,4.57778517 4.24888868,4.67033761 C4.07583066,4.76289005 3.90417426,4.81217798 3.43080147,4.81217798 L0,4.81217798 L0,0 L4.79215645,0 Z"></path></clipPath><linearGradient id="i10" x1="3.40503195e-14px" y1="3.41925811e-14px" x2="4.79215645px" y2="4.81217798px" gradientUnits="userSpaceOnUse"><stop stop-color="#FADC19" offset="0%"></stop><stop stop-color="#FF7C00" offset="100%"></stop></linearGradient><clipPath id="i11"><path d="M7.33798956,0 L7.33798956,7.36864754 L0,7.36864754 L0,0 L7.33798956,0 Z"></path></clipPath><filter id="i12" x="-33.3333333%" y="-33.3333333%" filterUnits="userSpaceOnUse" width="133.333333%" height="133.333333%"><feGaussianBlur stdDeviation="0.5" in="SourceAlpha" result="i13"></feGaussianBlur><feOffset dx="0" dy="0" in="i13" result="i14"></feOffset><feColorMatrix values="0 0 0 0.0 0 0 0 0 0.4318769574165344 0 0 0 0 1.0 0 0 0 0 0.2 0" type="matrix" in="i14"></feColorMatrix></filter></defs><g transform="translate(-16.0 -18.0)"><g clip-path="url(#i0)"><g transform="translate(16.0 18.0)"><g transform=""><g transform="translate(1.0658141036401503e-14 11.96587481672313) rotate(-44.99999999999999)"><g clip-path="url(#i1)"><polygon points="-2.88934351e-16,2.81016622e-14 16.9223025,2.81016622e-14 16.9223025,16.9930035 -2.88934351e-16,16.9930035 -2.88934351e-16,2.81016622e-14" stroke="none" fill="#D7D7D7"></polygon><g transform="translate(8.461151225734254 -8.46115122573427) rotate(44.99999999999999)"><g transform="translate(-3.380762336746557e-11 11.965874816841398) rotate(-44.99999999999999)"><g transform="translate(4.4177692240611055 12.180825519284099)"><g clip-path="url(#i2)"><polygon points="-8.52651283e-14,0 7.71237678,0 7.71237678,4.81217798 -8.52651283e-14,4.81217798 -8.52651283e-14,0" stroke="none" fill="#165DFF"></polygon></g></g><g transform="translate(1.2518874825673265e-12 4.812177982927749)"><g clip-path="url(#i3)"><polygon points="1.06240061e-10,2.84217094e-14 4.79215645,2.84217094e-14 4.79215645,12.1808255 1.06240061e-10,12.1808255 1.06240061e-10,2.84217094e-14" stroke="none" fill="url(#i4)"></polygon></g></g><g transform="translate(12.130146005034282 4.812177982928346)"><g clip-path="url(#i5)"><polygon points="-7.10542736e-14,0 4.79215645,0 4.79215645,12.1808255 -7.10542736e-14,12.1808255 -7.10542736e-14,0" stroke="none" fill="url(#i6)"></polygon></g></g><g transform=""><g clip-path="url(#i7)"><polygon points="1.07490616e-10,2.74129987e-14 16.9223025,2.74129987e-14 16.9223025,4.81217798 1.07490616e-10,4.81217798 1.07490616e-10,2.74129987e-14" stroke="none" fill="#00A9FF"></polygon></g></g><g transform=""><g clip-path="url(#i7)"><polygon points="1.07490616e-10,2.74129987e-14 16.9223025,2.74129987e-14 16.9223025,4.81217798 1.07490616e-10,4.81217798 1.07490616e-10,2.74129987e-14" stroke="none" fill="url(#i8)" opacity="80%"></polygon></g></g></g><g transform="translate(17.190452822063133 12.001710645010972) rotate(-44.999999999999986)"><g clip-path="url(#i9)"><polygon points="-1.42108547e-14,-2.84217094e-14 4.79215645,-2.84217094e-14 4.79215645,4.81217798 -1.42108547e-14,4.81217798 -1.42108547e-14,-2.84217094e-14" stroke="none" fill="url(#i10)"></polygon></g></g></g></g></g><g transform="translate(6.785578542741307 11.98002027475646) rotate(-44.99999999999999)"><g clip-path="url(#i11)"><path d="M9,-1 L9,9 L-1,9 L-1,-1 L9,-1 Z M7.33798956,0 L0,0 L0,7.36864754 L7.33798956,7.36864754 L7.33798956,0 Z" stroke="none" fill="#000000" filter="url(#i12)"></path></g></g></g><g transform="translate(31.98174282586598 0.9999999999998366)"><text transform="translate(0.0 17.0)" font-family="PingFangSC-Medium, PingFang SC" font-size="16.0" font-weight="400" fill="#FFFFFF" text-anchor="left">PMS管理后台</text></g></g></g></g></svg>